<?xml version="1.0" encoding="utf-8"?>
<!-- Generator: Adobe Illustrator 21.1.0, SVG Export Plug-In . SVG Version: 6.00 Build 0)  -->
<svg version="1.1" id="Layer_2" xmlns="http://www.w3.org/2000/svg" xmlns:xlink="http://www.w3.org/1999/xlink" x="0px" y="0px"
	 viewBox="0 0 500.7 328" style="enable-background:new 0 0 500.7 328;" xml:space="preserve">
<style type="text/css">
	.st0{fill:none;stroke:#FFFFFF;stroke-width:2.83;}
	.st1{fill:none;stroke:#FFFFFF;stroke-width:2.83;stroke-dasharray:5.87,5.87;}
	.st2{fill:none;stroke:#FFFFFF;stroke-width:2.83;stroke-dasharray:5.67,5.67;}
</style>
<title>la.vista</title>
<polyline class="st0" points="87.5,85.3 92.8,85.3 92.8,62.7 92.8,37.8 94.5,37.8 "/>
<polyline class="st0" points="92.8,62.8 7,62.8 7,111.5 "/>
<polyline class="st0" points="87.5,97.7 92.8,97.7 92.8,115.5 97.5,115.5 97.5,124.7 92.8,124.7 92.8,142.7 87.5,142.7 "/>
<line class="st0" x1="92.8" y1="124.7" x2="87.5" y2="124.7"/>
<line class="st0" x1="92.8" y1="115.5" x2="87.5" y2="115.5"/>
<line class="st0" x1="7" y1="116.3" x2="7" y2="168.2"/>
<line class="st0" x1="7" y1="173.3" x2="7" y2="181.7"/>
<polyline class="st0" points="7,186.7 7,234.3 93.8,234.3 93.8,237.8 90.5,237.8 "/>
<polyline class="st0" points="87.5,211.5 92.5,211.5 92.5,234.3 "/>
<polyline class="st0" points="87.5,199.3 92.5,199.3 92.5,182.3 97.5,182.3 97.5,172.5 92.5,172.5 92.5,154.7 87.5,154.7 "/>
<line class="st0" x1="92.5" y1="172.5" x2="88.2" y2="172.5"/>
<line class="st0" x1="92.5" y1="182.3" x2="88.2" y2="182.3"/>
<polyline class="st0" points="73.5,240.5 76.2,240.5 76.2,234.3 "/>
<polyline class="st0" points="77.5,263.3 77.5,265.2 81.3,265.2 82.7,270.2 99,266.8 110.7,324.2 159.7,317.3 206.2,312.3 243,310 
	243,297.5 257.2,297.5 257.2,302.5 261.2,302.5 261.2,273.8 259,273.8 259,244.8 239,244.8 231.5,246.8 231.5,250 235.2,250 
	242.8,248.7 254.8,248.7 254.8,254.5 231.7,255.5 231.7,258.3 "/>
<line class="st0" x1="200.2" y1="250.5" x2="205.5" y2="303.3"/>
<line class="st0" x1="205.5" y1="308" x2="205.5" y2="312.3"/>
<polyline class="st0" points="225.7,248.7 225.7,247.2 215.3,247.2 210.3,247.2 210.3,248.7 "/>
<polyline class="st0" points="215.3,247.2 215.3,252.8 211.5,252.8 212.5,270.5 259,267.3 "/>
<polyline class="st0" points="246.5,268.2 246.5,274.3 250.7,274.3 250.7,297.5 "/>
<line class="st0" x1="250.7" y1="284.5" x2="261.2" y2="284.5"/>
<polyline class="st0" points="225.7,253.5 225.7,258.8 227.5,258.8 227.5,265 "/>
<polyline class="st0" points="225.7,256.3 227.5,256.3 227.5,258.8 "/>
<line class="st0" x1="254.8" y1="254.5" x2="259" y2="254.5"/>
<polyline class="st0" points="143.7,258.8 143.7,255.5 151.3,255.5 159.7,317.3 "/>
<polyline class="st0" points="160.5,258.8 160.5,255.5 190.3,252.7 190.3,250.5 190.3,252.7 190.3,254.7 "/>
<polyline class="st0" points="99,266.8 99,262.7 114.3,260.8 115.5,266 121.5,266 "/>
<polyline class="st0" points="120.3,258.8 137.3,257 138.8,268.3 117,272.5 117,276 "/>
<polyline class="st0" points="124.2,258.4 126.2,263.8 129.8,263.8 129.8,270 "/>
<line class="st0" x1="138.3" y1="264.2" x2="145" y2="264.2"/>
<line class="st0" x1="134.3" y1="269.2" x2="143.7" y2="319"/>
<line class="st0" x1="132" y1="269.6" x2="141" y2="319.9"/>
<polyline class="st0" points="448.5,258 448.5,255.3 438.5,254.2 430.2,317 "/>
<line class="st0" x1="481.7" y1="259.9" x2="478.8" y2="275.3"/>
<polyline class="st0" points="447.8,320 455.5,267.6 455.5,259.9 459.5,259.9 463,257.5 466.5,257.5 466.5,268.5 458.7,268.5 
	451.3,320 "/>
<line class="st0" x1="466.5" y1="265.5" x2="473.7" y2="266.2"/>
<line class="st0" x1="458.7" y1="268.5" x2="455.5" y2="268.5"/>
<polyline class="st0" points="360.3,247.2 427,252.5 427,257.5 "/>
<polyline class="st0" points="350.3,297.5 334.7,297.5 334.7,302.3 331.3,302.5 331.3,245.3 354,245.3 349.5,309.5 430.2,317 
	484.8,326.3 496.7,262.8 472.7,258.2 472.7,253.8 "/>
<polyline class="st0" points="186.5,41.7 186.5,36.3 117.8,36.3 117.8,61.6 122.7,61.6 "/>
<polyline class="st0" points="122.7,73.3 122.7,75 111.7,75 111.7,84.3 120,84.3 "/>
<polyline class="st0" points="117.8,84.3 117.8,95.3 122.7,95.3 "/>
<polyline class="st0" points="122.7,107.5 117.8,107.5 117.8,118.7 111.7,118.7 111.7,127.3 117.2,127.3 117.2,137 122,137 "/>
<line class="st0" x1="117.2" y1="127.3" x2="120.2" y2="127.3"/>
<line class="st0" x1="117.8" y1="118.7" x2="120.2" y2="118.7"/>
<polyline class="st0" points="122.7,149.5 117.8,149.5 117.8,161.7 111.7,161.7 111.7,170.2 117.2,170.2 117.2,180 122.7,180 "/>
<line class="st0" x1="117.2" y1="170.2" x2="121.3" y2="170.2"/>
<line class="st0" x1="117.8" y1="161.7" x2="121.3" y2="161.7"/>
<polyline class="st0" points="122.7,192.7 117.8,192.7 117.8,208.5 151,208.5 151,204.7 156.3,204.7 156.3,208.5 "/>
<polyline class="st0" points="164.5,208.5 164.5,204.5 168.7,204.5 168.7,208.5 198.3,208.5 198.3,213.3 208.2,213.3 208.2,208.5 
	217.2,208.5 217.2,204.5 222.7,204.5 222.7,208.5 "/>
<line class="st0" x1="198.3" y1="208.5" x2="198.3" y2="204.5"/>
<line class="st0" x1="208.2" y1="208.5" x2="208.2" y2="204.5"/>
<polyline class="st0" points="230.3,208.5 230.3,204.5 235.2,204.5 235.2,208.5 263.2,208.5 263.2,204.5 268.3,204.5 268.3,208.5 
	"/>
<polyline class="st0" points="276.2,208.5 276.2,204.5 281.5,204.5 281.5,208.5 291.2,208.5 291.2,213.3 300.2,213.3 300.2,208.5 
	310.2,208.5 310.2,204.5 315.5,204.5 315.5,208.5 300.2,208.5 300.2,204.5 "/>
<line class="st0" x1="291.2" y1="208.5" x2="291.2" y2="204.5"/>
<polyline class="st0" points="323.2,208.9 323.2,204.5 328.2,204.5 328.2,208.2 355.5,208.2 355.5,204.5 361.3,204.5 361.3,208.9 
	"/>
<polyline class="st0" points="369.5,208.9 369.5,204.5 374.2,204.5 374.2,208.9 383.8,208.9 383.8,213.3 394.5,213.3 394.5,208.9 
	422.5,208.9 422.5,204.5 427,204.5 427,208.2 "/>
<line class="st0" x1="383.8" y1="208.9" x2="383.8" y2="204.5"/>
<line class="st0" x1="394.5" y1="208.9" x2="394.5" y2="204.5"/>
<polyline class="st0" points="434.5,208.9 434.5,204.5 440.5,204.5 440.5,208.9 463.3,208.9 474.5,195.3 474.5,191.3 470,191.3 "/>
<polyline class="st0" points="494.5,186.5 494.5,188.3 499,188.3 494.5,212.3 480.8,212.3 480.8,216.5 "/>
<polyline class="st0" points="469.2,180.3 474.5,180.3 474.5,170.5 479.3,170.5 479.3,161.5 474.5,161.5 474.5,147.5 469.2,147.5 
	"/>
<line class="st0" x1="474.5" y1="161.5" x2="470.5" y2="161.5"/>
<line class="st0" x1="474.5" y1="170.5" x2="470.5" y2="170.5"/>
<polyline class="st0" points="469.2,139.7 474.2,139.7 474.2,126.5 479.3,126.5 479.3,117.3 474.2,117.3 474.2,106.3 469.2,106.3 
	"/>
<line class="st0" x1="474.2" y1="117.3" x2="470.5" y2="117.3"/>
<line class="st0" x1="474.2" y1="126.5" x2="470.5" y2="126.5"/>
<polyline class="st0" points="469.2,96.8 474.2,96.8 474.2,83.2 479.3,83.2 479.3,74.5 469.2,74.5 "/>
<line class="st0" x1="469.2" y1="83.2" x2="474.2" y2="83.2"/>
<polyline class="st0" points="469.2,63.7 474.2,63.7 474.2,36.5 404.5,36.5 404.5,41.3 "/>
<line class="st0" x1="474.2" y1="36.5" x2="476.5" y2="36.5"/>
<polyline class="st0" points="393.2,41.7 393.2,31.7 383.7,31.7 383.7,41.7 "/>
<polyline class="st0" points="371.5,41.7 371.5,36.5 312.8,36.5 312.8,41.7 "/>
<polyline class="st0" points="300.5,41.7 300.5,31.7 290.7,31.7 290.7,41.7 "/>
<polyline class="st0" points="279.5,41.7 279.5,36.5 219.3,36.5 219.3,41.7 "/>
<polyline class="st0" points="208.5,41.7 208.5,31.7 198.5,31.7 198.5,41.7 "/>
<line class="st0" x1="131" y1="36.3" x2="131" y2="34.7"/>
<line class="st0" x1="115.2" y1="16.5" x2="187.3" y2="16.5"/>
<line class="st0" x1="131" y1="16.5" x2="131" y2="18"/>
<line class="st0" x1="196.2" y1="16.5" x2="232.7" y2="16.5"/>
<line class="st0" x1="238.5" y1="16.5" x2="243" y2="16.5"/>
<polyline class="st0" points="249.5,16.5 286.2,16.5 286.2,14.8 "/>
<polyline class="st0" points="300.5,14.8 300.5,17.3 331.7,17.3 "/>
<line class="st0" x1="342.2" y1="17.3" x2="369.5" y2="17.3"/>
<line class="st0" x1="377.5" y1="17.3" x2="405.2" y2="17.3"/>
<line class="st0" x1="416.3" y1="17.3" x2="423.5" y2="17.3"/>
<polyline class="st0" points="428.2,17.3 435.2,17.3 435.2,5.7 438.5,5.7 "/>
<line class="st0" x1="443.3" y1="5.7" x2="476.5" y2="5.7"/>
<line class="st0" x1="481.5" y1="5.7" x2="485.3" y2="5.7"/>
<polyline class="st0" points="491.2,5.7 494,5.7 494,181.5 "/>
<line class="st0" x1="494" y1="36.5" x2="491.2" y2="36.5"/>
<line class="st0" x1="486.3" y1="36.5" x2="482.7" y2="36.5"/>
<line class="st0" x1="9.8" y1="120.2" x2="12.7" y2="120.2"/>
<line class="st1" x1="18.5" y1="120.2" x2="86.1" y2="120.2"/>
<line class="st0" x1="89" y1="120.2" x2="91.8" y2="120.2"/>
<line class="st0" x1="8.9" y1="177.5" x2="11.8" y2="177.5"/>
<line class="st1" x1="17.6" y1="177.5" x2="85.2" y2="177.5"/>
<line class="st0" x1="88.1" y1="177.5" x2="90.9" y2="177.5"/>
<line class="st2" x1="203.5" y1="40.7" x2="203.5" y2="204.5"/>
<line class="st2" x1="203.5" y1="165.5" x2="122" y2="165.5"/>
<line class="st2" x1="203.5" y1="122.6" x2="121.3" y2="122.6"/>
<line class="st2" x1="203.5" y1="80.5" x2="121.3" y2="80.5"/>
<line class="st2" x1="388.4" y1="41.7" x2="388.4" y2="204.5"/>
<line class="st2" x1="388.4" y1="123" x2="469.2" y2="123"/>
<line class="st2" x1="388.4" y1="166" x2="469.2" y2="166"/>
<line class="st2" x1="470.5" y1="79.3" x2="388.4" y2="79.3"/>
<polyline class="st0" points="261.2,273.8 266.4,273.8 266.4,277.5 267.5,277.5 "/>
<polyline class="st0" points="261.2,296.1 266.6,296.1 266.6,300.4 268.2,300.4 "/>
<polyline class="st0" points="325.2,277.5 326.5,277.5 326.5,273.8 331.3,273.8 "/>
<polyline class="st0" points="325.2,300.4 325.2,300.4 326.9,300.4 326.9,296.6 331.3,296.6 "/>
<polyline class="st0" points="293.4,300.4 290.5,300.4 291.9,300.4 291.9,296.6 "/>
<polyline class="st0" points="302.4,300.4 299.5,300.4 300.9,300.4 300.9,296.6 "/>
<polyline class="st0" points="311.4,300.4 308.5,300.4 309.9,300.4 309.9,296.6 "/>
<polyline class="st0" points="319.4,300.4 316.5,300.4 317.9,300.4 317.9,296.6 "/>
<polyline class="st0" points="285.4,300.4 282.5,300.4 283.9,300.4 283.9,296.6 "/>
<polyline class="st0" points="276.4,300.4 273.5,300.4 274.9,300.4 274.9,296.6 "/>
<polyline class="st0" points="276.4,277.4 273.5,277.4 274.9,277.4 274.9,273.6 "/>
<polyline class="st0" points="285.4,277.4 282.5,277.4 283.9,277.4 283.9,273.6 "/>
<polyline class="st0" points="293.4,277.4 290.5,277.4 291.9,277.4 291.9,273.6 "/>
<polyline class="st0" points="302.4,277.4 299.5,277.4 300.9,277.4 300.9,273.6 "/>
<polyline class="st0" points="311.4,277.4 308.5,277.4 309.9,277.4 309.9,273.6 "/>
<polyline class="st0" points="319.4,277.4 316.5,277.4 317.9,277.4 317.9,273.6 "/>
<line class="st0" x1="331.3" y1="266.2" x2="343.5" y2="266.2"/>
<line class="st0" x1="74.8" y1="246.2" x2="74.8" y2="251.6"/>
<line class="st0" x1="74.8" y1="248.9" x2="78.4" y2="248.9"/>
<line class="st0" x1="91.8" y1="243.2" x2="91.8" y2="248.6"/>
<line class="st0" x1="91.8" y1="245.9" x2="95.4" y2="245.9"/>
<line class="st0" x1="75.4" y1="256.2" x2="75.4" y2="258.4"/>
<line class="st0" x1="80.6" y1="257.3" x2="75.4" y2="257.3"/>
<polyline class="st0" points="99,262.7 94.4,262.7 94.4,261.4 "/>
<polyline class="st0" points="97.5,254.5 92.5,254.5 92.5,253.1 "/>
<line class="st0" x1="93.6" y1="257" x2="93.6" y2="254.5"/>
</svg>
