<?xml version="1.0"?>
<svg xmlns="http://www.w3.org/2000/svg" viewBox="0 0 342.84 248.15">
	<defs>
		<style>.cls-1,.cls-2{fill:none;stroke-miterlimit:10;}.cls-1{stroke:#ed1c24;stroke-width:4.25px;}.cls-2{stroke:#fff;stroke-width:4px;}.cls-3{fill:#fff;}</style>
	</defs>
	<title>windsor</title>
	<g id="Layer_2" data-name="Layer 2">
		<polyline class="cls-2" points="48.39 110.78 53.39 110.78 53.39 96.78 40.05 96.78 40.05 6.11 89.72 6.11 89.72 0"/>
		<polyline class="cls-2" points="122.46 0 122.46 5.45 221.71 5.45 221.71 0"/>
		<line class="cls-2" x1="172.08" y1="11.78" x2="172.08" y2="5.45"/>
		<polyline class="cls-2" points="302.23 239.73 302.23 246.15 40.05 246.15 40.05 155.15 53.39 155.15 53.39 141.82 48.39 141.82"/>
		<polyline class="cls-2" points="252.54 0.72 252.54 6.17 302.55 6.17 302.55 12.5"/>
		<line class="cls-2" x1="302.55" y1="12.5" x2="302.23" y2="239.73"/>
	</g>
	<g id="Layer_3" data-name="Layer 3">
		<rect class="cls-3" x="97.13" y="39.94" width="8.7" height="72.28"/>
		<rect class="cls-3" x="120.13" y="39.94" width="8.7" height="72.28"/>
		<rect class="cls-3" x="142.46" y="39.94" width="8.7" height="72.28"/>
		<rect class="cls-3" x="164.79" y="39.94" width="8.7" height="72.28"/>
		<rect class="cls-3" x="187.46" y="39.94" width="8.7" height="72.28"/>
		<rect class="cls-3" x="210.13" y="39.94" width="8.7" height="72.28"/>
		<rect class="cls-3" x="232.46" y="39.94" width="8.7" height="72.28"/>
		<rect class="cls-3" x="255.79" y="39.94" width="8.7" height="72.28"/>
		<rect class="cls-3" x="97.13" y="139.61" width="8.7" height="90"/>
		<rect class="cls-3" x="120.13" y="139.61" width="8.7" height="90"/>
		<rect class="cls-3" x="142.46" y="139.61" width="8.7" height="90"/>
		<rect class="cls-3" x="164.79" y="139.61" width="8.7" height="90"/>
		<rect class="cls-3" x="187.46" y="139.61" width="8.7" height="90"/>
		<rect class="cls-3" x="210.13" y="139.61" width="8.7" height="90"/>
		<rect class="cls-3" x="232.46" y="139.61" width="8.7" height="90"/>
		<rect class="cls-3" x="255.79" y="139.61" width="8.7" height="90"/>
	</g>
</svg>
