<svg id="Layer_2" data-name="Layer 2" xmlns="http://www.w3.org/2000/svg" viewBox="0 0 573.67 209.67"><defs><style>.cls-1{fill:none;stroke:#fff;stroke-miterlimit:10;stroke-width:4px;}</style></defs><title>hoxton</title><polyline class="cls-1" points="246.17 2.83 2.83 2.83 2.83 206.84 296.17 206.84 296.17 194.84 346.83 194.84 346.83 206.84 378.83 206.84 378.83 195.5 397.5 195.5 397.5 206.84 570.84 206.84 570.84 85.5 431.5 85.5 431.5 2.83 410.83 2.83 410.83 8.8 366.76 8.8 366.76 2.83 287.17 2.83"/><polyline class="cls-1" points="431.5 85.5 431.5 110.5 445.17 110.5"/><polyline class="cls-1" points="431.67 206.84 431.67 180.63 446.42 180.63"/><polyline class="cls-1" points="271.5 206.84 271.5 98.17 341.83 98.17 341.83 58.84 315.83 58.84 289.5 58.84 289.5 96.5"/><line class="cls-1" x1="316.17" y1="44.5" x2="316.17" y2="58.83"/><polyline class="cls-1" points="271.5 129.5 207.5 129.5 207.5 104.05 221.17 104.05"/><line class="cls-1" x1="207.5" y1="151.17" x2="207.5" y2="129.5"/><line class="cls-1" x1="192.17" y1="116.77" x2="207.5" y2="116.77"/><line class="cls-1" x1="207.5" y1="166.17" x2="207.5" y2="206.83"/><polyline class="cls-1" points="39.5 84.83 53.5 84.83 53.5 129.5 39.5 129.5"/><polyline class="cls-1" points="53.5 104.05 161.17 104.05 161.17 90.5 161.17 104.05 161.17 116.78 175.5 116.78"/><polyline class="cls-1" points="175.5 73.17 162.17 73.17 162.17 2.83"/><polyline class="cls-1" points="192.17 73.17 233.17 73.17 233.17 2.83"/><polyline class="cls-1" points="39.5 33.5 53.5 33.5 53.5 2.83"/><polyline class="cls-1" points="39.5 179.84 53.5 179.84 53.5 206.84"/></svg>