<svg id="Layer_2" data-name="Layer 2" xmlns="http://www.w3.org/2000/svg" viewBox="0 0 577.32 215.95"><defs><style>.cls-1{fill:none;stroke:#fff;stroke-miterlimit:10;stroke-width:2.83px;}</style></defs><title>south.bank</title><polygon class="cls-1" points="1.42 29.04 197.64 29.04 197.64 1.42 214.14 1.42 214.14 29.04 384.64 29.04 384.64 1.42 400.64 1.42 400.64 29.04 575.9 29.04 575.9 143.04 547.14 143.04 547.14 214.53 372.64 214.53 372.64 144.54 225.14 144.54 225.14 210.04 22.64 210.04 22.64 117.54 1.42 117.54 1.42 29.04"/><polyline class="cls-1" points="1.42 50.04 40.64 50.04 40.64 56.04"/><line class="cls-1" x1="40.64" y1="65.54" x2="40.64" y2="107.97"/><line class="cls-1" x1="22.64" y1="117.54" x2="45.14" y2="117.54"/><polyline class="cls-1" points="45.14 124.54 45.14 132.54 22.64 132.54"/><polyline class="cls-1" points="22.64 155.04 54.14 155.04 54.14 110.04"/><line class="cls-1" x1="22.64" y1="179.04" x2="33.89" y2="179.04"/><line class="cls-1" x1="38.39" y1="210.04" x2="38.39" y2="182.04"/><line class="cls-1" x1="60.64" y1="186.54" x2="75.64" y2="171.54"/><line class="cls-1" x1="206.14" y1="210.04" x2="206.14" y2="182.04"/><line class="cls-1" x1="225.14" y1="179.04" x2="213.14" y2="179.04"/><line class="cls-1" x1="189.14" y1="29.04" x2="189.14" y2="50.04"/><line class="cls-1" x1="158.64" y1="29.04" x2="158.64" y2="50.04"/><polyline class="cls-1" points="141.14 29.04 141.14 50.04 130.64 50.04 141.14 50.04 148.64 50.04"/><line class="cls-1" x1="124.14" y1="29.04" x2="124.14" y2="50.04"/><polyline class="cls-1" points="107.14 29.04 107.14 50.04 114.64 50.04"/><line class="cls-1" x1="73.14" y1="50.04" x2="73.14" y2="29.04"/><line class="cls-1" x1="33.89" y1="42.04" x2="33.89" y2="29.04"/><polyline class="cls-1" points="68.14 89.54 68.14 84.04 63.64 84.04 63.64 65.54 215.64 65.54 215.64 82.54"/><polyline class="cls-1" points="172.64 65.54 172.64 83.54 208.64 83.54"/><line class="cls-1" x1="206.14" y1="74.54" x2="206.14" y2="65.54"/><polyline class="cls-1" points="164.64 65.54 164.64 83.54 77.64 83.54"/><line class="cls-1" x1="145.14" y1="65.54" x2="145.14" y2="83.54"/><line class="cls-1" x1="130.64" y1="65.54" x2="130.64" y2="83.54"/><line class="cls-1" x1="114.64" y1="65.54" x2="114.64" y2="83.54"/><line class="cls-1" x1="107.14" y1="74.54" x2="107.14" y2="65.54"/><line class="cls-1" x1="77.64" y1="65.54" x2="77.64" y2="74.54"/><line class="cls-1" x1="63.64" y1="110.04" x2="215.64" y2="110.04"/><polyline class="cls-1" points="198.64 110.04 198.64 158.54 100.14 158.54 100.14 110.04"/><polyline class="cls-1" points="100.14 124.54 63.64 124.54 63.64 115.54"/><polyline class="cls-1" points="100.14 142.04 63.64 142.04 63.64 150.04"/><polyline class="cls-1" points="100.14 158.54 100.14 171.54 92.14 171.54"/><line class="cls-1" x1="107.14" y1="158.54" x2="107.14" y2="171.54"/><polyline class="cls-1" points="121.14 158.54 121.14 171.54 130.64 171.54 121.14 171.54 114.64 171.54"/><line class="cls-1" x1="139.64" y1="158.54" x2="139.64" y2="171.54"/><polyline class="cls-1" points="156.64 158.54 156.64 171.54 164.64 171.54"/><line class="cls-1" x1="156.64" y1="171.54" x2="149.39" y2="171.54"/><polyline class="cls-1" points="172.64 158.54 172.64 158.54 172.64 171.54"/><polyline class="cls-1" points="190.64 158.54 190.64 171.54 198.64 171.54 190.64 171.54 181.14 171.54"/><line class="cls-1" x1="198.64" y1="158.54" x2="215.64" y2="158.54"/><line class="cls-1" x1="207.14" y1="158.54" x2="207.14" y2="174.04"/><line class="cls-1" x1="198.64" y1="152.04" x2="215.64" y2="152.04"/><polyline class="cls-1" points="198.64 134.29 215.64 134.29 215.64 124.54 215.64 134.29 215.64 144.04"/><line class="cls-1" x1="198.64" y1="117.54" x2="215.64" y2="117.54"/><line class="cls-1" x1="206.14" y1="96.04" x2="206.14" y2="110.04"/><polyline class="cls-1" points="190.64 107.97 190.64 96.04 181.14 96.04"/><line class="cls-1" x1="172.64" y1="96.04" x2="172.64" y2="110.04"/><polyline class="cls-1" points="156.64 107.97 156.64 96.04 164.64 96.04 156.64 96.04 149.39 96.04"/><line class="cls-1" x1="139.64" y1="96.04" x2="139.64" y2="107.97"/><polyline class="cls-1" points="124.14 107.97 124.14 96.04 130.64 96.04"/><line class="cls-1" x1="107.14" y1="96.04" x2="107.14" y2="110.04"/><polyline class="cls-1" points="88.64 110.04 88.64 96.04 96.14 96.04"/><line class="cls-1" x1="68.14" y1="99.04" x2="68.14" y2="107.97"/><line class="cls-1" x1="124.14" y1="96.04" x2="114.64" y2="96.04"/><line class="cls-1" x1="190.64" y1="96.04" x2="196.14" y2="96.04"/><line class="cls-1" x1="189.14" y1="65.54" x2="189.14" y2="59.54"/><rect class="cls-1" x="225.14" y="92.04" width="23.5" height="15.94"/><line class="cls-1" x1="225.14" y1="144.54" x2="225.14" y2="134.29"/><polyline class="cls-1" points="248.64 144.54 248.64 128.54 225.14 128.54 225.14 107.97"/><polyline class="cls-1" points="276.14 144.54 276.14 92.04 257.64 92.04 257.64 110.04 276.14 110.04"/><polyline class="cls-1" points="276.14 124.54 263.14 124.54 263.14 120.04"/><polyline class="cls-1" points="263.14 124.54 263.14 124.54 263.14 128.29"/><line class="cls-1" x1="263.14" y1="134.29" x2="263.14" y2="144.04"/><line class="cls-1" x1="276.14" y1="92.04" x2="281.39" y2="92.04"/><polyline class="cls-1" points="278.77 54.54 281.39 54.54 281.39 83.54 248.64 77.54 248.64 73.04 255.89 54.54 260.89 54.54"/><polyline class="cls-1" points="283.39 29.04 283.39 46.54 278.77 46.54"/><polyline class="cls-1" points="317.39 29.04 317.39 46.54 321.89 46.54"/><polyline class="cls-1" points="321.89 54.54 317.39 54.54 317.39 83.54 349.39 79.54 349.39 73.54 342.89 54.54 338.39 54.54"/><polyline class="cls-1" points="320.64 144.54 320.64 93.29 339.14 93.29 339.14 112.29 320.64 111.79"/><line class="cls-1" x1="320.64" y1="93.29" x2="315.39" y2="93.29"/><polyline class="cls-1" points="320.64 124.54 332.14 124.54 332.14 121.04"/><line class="cls-1" x1="332.14" y1="124.54" x2="332.14" y2="128.29"/><line class="cls-1" x1="332.14" y1="144.54" x2="332.14" y2="134.29"/><line class="cls-1" x1="372.64" y1="144.54" x2="372.64" y2="138.04"/><polyline class="cls-1" points="372.64 132.04 372.64 93.29 347.14 93.29 347.14 107.97 372.64 107.97"/><polyline class="cls-1" points="372.64 128.29 347.14 128.29 347.14 144.54"/><polyline class="cls-1" points="395.89 83.54 383.89 83.54 383.89 67.54 443.39 67.54 443.39 83.54 403.64 83.54"/><line class="cls-1" x1="405.39" y1="67.54" x2="405.39" y2="75.54"/><line class="cls-1" x1="396.14" y1="67.54" x2="396.14" y2="75.54"/><polyline class="cls-1" points="516.39 83.54 478.14 83.54 478.14 67.54 537.89 67.54 537.89 83.54 524.64 83.54"/><line class="cls-1" x1="511.89" y1="67.54" x2="511.89" y2="75.54"/><line class="cls-1" x1="522.64" y1="67.54" x2="522.64" y2="75.54"/><polyline class="cls-1" points="553.64 29.04 553.64 57.54 564.14 57.54"/><line class="cls-1" x1="575.9" y1="57.54" x2="571.14" y2="57.54"/><line class="cls-1" x1="547.14" y1="143.04" x2="547.14" y2="127.54"/><polyline class="cls-1" points="528.89 97.79 528.89 112.66 383.89 112.66 383.89 145.79"/><polyline class="cls-1" points="502.64 112.66 502.64 161.54 383.89 161.54 383.89 158.04"/><line class="cls-1" x1="401.89" y1="161.54" x2="401.89" y2="112.66"/><line class="cls-1" x1="383.89" y1="137.1" x2="401.89" y2="137.1"/><line class="cls-1" x1="401.89" y1="152.04" x2="385.14" y2="152.04"/><polyline class="cls-1" points="443.39 112.66 443.39 96.29 432.89 96.29"/><line class="cls-1" x1="426.89" y1="112.66" x2="426.89" y2="97.79"/><line class="cls-1" x1="419.14" y1="96.29" x2="400.64" y2="96.29"/><line class="cls-1" x1="409.89" y1="112.66" x2="409.89" y2="96.29"/><polyline class="cls-1" points="392.89 112.66 392.89 96.29 386.89 96.29"/><polyline class="cls-1" points="478.14 112.66 478.14 96.29 487.39 96.29"/><line class="cls-1" x1="494.64" y1="112.66" x2="494.64" y2="97.79"/><line class="cls-1" x1="511.89" y1="112.66" x2="511.89" y2="96.29"/><line class="cls-1" x1="502.64" y1="96.29" x2="520.39" y2="96.29"/><polyline class="cls-1" points="502.64 127.54 536.64 127.54 536.64 132.04"/><polyline class="cls-1" points="502.64 144.54 536.64 144.54 536.64 139.79"/><line class="cls-1" x1="513.39" y1="168.79" x2="524.14" y2="179.54"/><line class="cls-1" x1="537.89" y1="186.29" x2="547.14" y2="186.29"/><polyline class="cls-1" points="528.89 214.53 528.89 186.29 531.64 186.29"/><polyline class="cls-1" points="391.14 214.29 391.14 181.79 388.14 181.79"/><line class="cls-1" x1="372.64" y1="180.79" x2="381.64" y2="180.79"/><polyline class="cls-1" points="393.52 161.54 393.52 175.29 388.14 175.29"/><polyline class="cls-1" points="400.64 176.79 409.89 176.79 409.89 161.54"/><line class="cls-1" x1="409.89" y1="176.79" x2="417.14" y2="176.79"/><line class="cls-1" x1="426.89" y1="176.79" x2="426.89" y2="161.54"/><polyline class="cls-1" points="434.89 176.79 443.39 176.79 443.39 161.54"/><line class="cls-1" x1="443.39" y1="176.79" x2="452.89" y2="176.79"/><line class="cls-1" x1="461.14" y1="175.29" x2="461.14" y2="161.54"/><polyline class="cls-1" points="466.89 176.79 478.14 176.79 478.14 161.54"/><line class="cls-1" x1="478.14" y1="176.79" x2="487.39" y2="176.79"/><line class="cls-1" x1="494.64" y1="161.54" x2="494.64" y2="175.29"/><polyline class="cls-1" points="502.64 161.54 502.64 176.79 500.14 176.79"/><polyline class="cls-1" points="362.89 112.66 362.89 118.91 362.89 122.79"/><polyline class="cls-1" points="367.39 112.66 367.39 114.79 367.39 118.91 367.39 122.79"/><polyline class="cls-1" points="352.89 112.66 352.89 118.91 352.89 122.79"/><polyline class="cls-1" points="357.39 112.66 357.39 114.79 357.39 118.91 357.39 122.79"/><polyline class="cls-1" points="517.27 131.23 517.27 137.48 517.27 141.35"/><polyline class="cls-1" points="521.77 131.23 521.77 133.35 521.77 137.48 521.77 141.35"/><polyline class="cls-1" points="507.27 131.23 507.27 137.48 507.27 141.35"/><polyline class="cls-1" points="511.77 131.23 511.77 133.35 511.77 137.48 511.77 141.35"/><polyline class="cls-1" points="387.89 17.04 394.14 17.04 398.02 17.04"/><polyline class="cls-1" points="387.89 12.54 390.02 12.54 394.14 12.54 398.02 12.54"/><polyline class="cls-1" points="387.89 27.04 394.14 27.04 398.02 27.04"/><polyline class="cls-1" points="387.89 22.54 390.02 22.54 394.14 22.54 398.02 22.54"/><polyline class="cls-1" points="201.08 16.54 207.33 16.54 211.21 16.54"/><polyline class="cls-1" points="201.08 12.04 203.21 12.04 207.33 12.04 211.21 12.04"/><polyline class="cls-1" points="201.08 26.54 207.33 26.54 211.21 26.54"/><polyline class="cls-1" points="201.08 22.04 203.21 22.04 207.33 22.04 211.21 22.04"/><polyline class="cls-1" points="90.39 128.23 90.39 134.48 90.39 138.35"/><polyline class="cls-1" points="94.89 128.23 94.89 130.35 94.89 134.48 94.89 138.35"/><polyline class="cls-1" points="80.39 128.23 80.39 134.48 80.39 138.35"/><polyline class="cls-1" points="84.89 128.23 84.89 130.35 84.89 134.48 84.89 138.35"/><polyline class="cls-1" points="240.64 113.23 240.64 119.48 240.64 123.35"/><polyline class="cls-1" points="245.14 113.23 245.14 115.35 245.14 119.48 245.14 123.35"/><polyline class="cls-1" points="230.64 113.23 230.64 119.48 230.64 123.35"/><polyline class="cls-1" points="235.14 113.23 235.14 115.35 235.14 119.48 235.14 123.35"/></svg>