<svg xmlns="http://www.w3.org/2000/svg" viewBox="0 0 527.67 248.45"><defs><style>.cls-1{fill:none;stroke:#fff;stroke-miterlimit:10;stroke-width:4px;}.cls-2{fill:#fff;}</style></defs><title>windsor</title><g id="Layer_2" data-name="Layer 2"><polyline class="cls-1" points="10.33 110.78 15.33 110.78 15.33 96.78 2 96.78 2 6.11 51.67 6.11 51.67 0"/><line class="cls-1" x1="525.67" y1="5.45" x2="525.67" y2="246.45"/><polyline class="cls-1" points="477 0 477 5.45 525.67 5.45 525.67 246.45 2 246.45 2 155.45 15.33 155.45 15.33 142.11 10.33 142.11"/><polyline class="cls-1" points="345.67 0 345.67 5.45 444.67 5.45 444.67 0"/><line class="cls-1" x1="395.17" y1="11.78" x2="395.17" y2="5.45"/><polyline class="cls-1" points="214.17 0 214.17 5.45 313.17 5.45 313.17 0"/><line class="cls-1" x1="264.18" y1="11.78" x2="264.18" y2="5.45"/><polyline class="cls-1" points="82.92 0 82.92 5.45 182.17 5.45 182.17 0"/><line class="cls-1" x1="132.54" y1="11.78" x2="132.54" y2="5.45"/><line class="cls-1" x1="264.18" y1="240.03" x2="264.18" y2="246.45"/></g><g id="Layer_3" data-name="Layer 3"><rect class="cls-2" x="63" y="40.78" width="8.7" height="72.28"/><rect class="cls-2" x="86" y="40.78" width="8.7" height="72.28"/><rect class="cls-2" x="108.33" y="40.78" width="8.7" height="72.28"/><rect class="cls-2" x="130.67" y="40.78" width="8.7" height="72.28"/><rect class="cls-2" x="153.33" y="40.78" width="8.7" height="72.28"/><rect class="cls-2" x="176" y="40.78" width="8.7" height="72.28"/><rect class="cls-2" x="198.33" y="40.78" width="8.7" height="72.28"/><rect class="cls-2" x="221.67" y="40.78" width="8.7" height="72.28"/><rect class="cls-2" x="63" y="140.45" width="8.7" height="90"/><rect class="cls-2" x="86" y="140.45" width="8.7" height="90"/><rect class="cls-2" x="108.33" y="140.45" width="8.7" height="90"/><rect class="cls-2" x="130.67" y="140.45" width="8.7" height="90"/><rect class="cls-2" x="153.33" y="140.45" width="8.7" height="90"/><rect class="cls-2" x="176" y="140.45" width="8.7" height="90"/><rect class="cls-2" x="198.33" y="140.45" width="8.7" height="90"/><rect class="cls-2" x="221.67" y="140.45" width="8.7" height="90"/><rect class="cls-2" x="289" y="40.78" width="8.7" height="72.28"/><rect class="cls-2" x="312" y="40.78" width="8.7" height="72.28"/><rect class="cls-2" x="334.33" y="40.78" width="8.7" height="72.28"/><rect class="cls-2" x="356.67" y="40.78" width="8.7" height="72.28"/><rect class="cls-2" x="379.33" y="40.78" width="8.7" height="72.28"/><rect class="cls-2" x="402" y="40.78" width="8.7" height="72.28"/><rect class="cls-2" x="424.33" y="40.78" width="8.7" height="72.28"/><rect class="cls-2" x="447.67" y="40.78" width="8.7" height="72.28"/><rect class="cls-2" x="289" y="140.45" width="8.7" height="90"/><rect class="cls-2" x="312" y="140.45" width="8.7" height="90"/><rect class="cls-2" x="334.33" y="140.45" width="8.7" height="90"/><rect class="cls-2" x="356.67" y="140.45" width="8.7" height="90"/><rect class="cls-2" x="379.33" y="140.45" width="8.7" height="90"/><rect class="cls-2" x="402" y="140.45" width="8.7" height="90"/><rect class="cls-2" x="424.33" y="140.45" width="8.7" height="90"/><rect class="cls-2" x="447.67" y="140.45" width="8.7" height="90"/></g></svg>